 <svg  version="1.0" xmlns="http://www.w3.org/2000/svg"  width="124.000000pt" height="135.000000pt" viewBox="0 0 124.000000 135.000000"  preserveAspectRatio="xMidYMid meet">  <g transform="translate(0.000000,135.000000) scale(0.100000,-0.100000)" fill="#04ff00" stroke="none"> <path d="M507 1159 c-103 -24 -215 -117 -263 -216 -93 -198 -16 -432 177 -535 69 -36 104 -34 104 6 0 26 -5 31 -43 44 -55 18 -141 97 -172 158 -22 43 -25 62 -25 149 0 117 16 159 92 237 66 68 128 92 233 92 103 1 159 -23 233 -96 71 -71 91 -123 92 -233 0 -73 -4 -98 -23 -136 -36 -74 -87 -125 -158 -160 -37 -18 -68 -39 -71 -46 -7 -18 15 -43 39 -43 37 0 139 63 188 117 72 79 94 143 95 273 0 93 -3 112 -27 162 -29 64 -95 139 -150 174 -88 56 -218 77 -321 53z"/> <path d="M583 793 c-9 -3 -13 -34 -13 -102 0 -54 -3 -101 -7 -105 -4 -3 -33 19 -65 51 -49 48 -61 56 -76 47 -35 -23 -25 -45 62 -134 l86 -87 0 -146 c0 -138 1 -146 20 -152 43 -14 50 8 50 159 l0 141 85 85 c68 67 85 90 83 110 -5 44 -35 36 -101 -27 l-62 -58 -3 99 c-3 116 -14 138 -59 119z"/> </g> </svg> 